<mxfile host="app.diagrams.net" modified="2023-07-09T08:53:47.993Z" agent="Mozilla/5.0 (Windows NT 10.0; Win64; x64) AppleWebKit/537.36 (KHTML, like Gecko) Chrome/114.0.0.0 Safari/537.36" etag="mOp2GiE_6XQ_uuSP-ARw" version="21.6.1" type="github">
  <diagram name="第 1 页" id="vicb9nob8JcBcUOfZWf1">
    <mxGraphModel dx="396" dy="558" grid="0" gridSize="14" guides="1" tooltips="1" connect="1" arrows="1" fold="1" page="0" pageScale="1" pageWidth="827" pageHeight="1169" math="0" shadow="0">
      <root>
        <mxCell id="0" />
        <mxCell id="1" parent="0" />
        <mxCell id="tv0lrHKJMZ2K0MkYr-PI-4" style="edgeStyle=orthogonalEdgeStyle;rounded=0;orthogonalLoop=1;jettySize=auto;html=1;exitX=0.5;exitY=1;exitDx=0;exitDy=0;entryX=0.5;entryY=0;entryDx=0;entryDy=0;" edge="1" parent="1" source="_YY484bC7Gj4B44uen5N-1" target="tv0lrHKJMZ2K0MkYr-PI-1">
          <mxGeometry relative="1" as="geometry" />
        </mxCell>
        <mxCell id="_YY484bC7Gj4B44uen5N-1" value="&lt;font style=&quot;font-size: 16px;&quot;&gt;swc.transformSync(src, options)&lt;/font&gt;" style="rounded=1;whiteSpace=wrap;html=1;" parent="1" vertex="1">
          <mxGeometry x="519" y="212" width="311" height="70" as="geometry" />
        </mxCell>
        <mxCell id="tv0lrHKJMZ2K0MkYr-PI-5" style="edgeStyle=orthogonalEdgeStyle;rounded=0;orthogonalLoop=1;jettySize=auto;html=1;exitX=0.5;exitY=1;exitDx=0;exitDy=0;entryX=0.5;entryY=0;entryDx=0;entryDy=0;" edge="1" parent="1" source="tv0lrHKJMZ2K0MkYr-PI-1" target="tv0lrHKJMZ2K0MkYr-PI-2">
          <mxGeometry relative="1" as="geometry" />
        </mxCell>
        <mxCell id="tv0lrHKJMZ2K0MkYr-PI-1" value="&lt;font style=&quot;font-size: 16px;&quot;&gt;bindings // 就是swc-rs可执行程序&lt;br&gt;isModule = typeof src !== &quot;string&quot;&lt;br&gt;&lt;/font&gt;" style="rounded=1;whiteSpace=wrap;html=1;" vertex="1" parent="1">
          <mxGeometry x="519" y="355" width="311" height="75" as="geometry" />
        </mxCell>
        <mxCell id="tv0lrHKJMZ2K0MkYr-PI-7" style="edgeStyle=orthogonalEdgeStyle;rounded=0;orthogonalLoop=1;jettySize=auto;html=1;exitX=1;exitY=0.5;exitDx=0;exitDy=0;entryX=0;entryY=0.5;entryDx=0;entryDy=0;" edge="1" parent="1" source="tv0lrHKJMZ2K0MkYr-PI-2" target="tv0lrHKJMZ2K0MkYr-PI-6">
          <mxGeometry relative="1" as="geometry" />
        </mxCell>
        <mxCell id="tv0lrHKJMZ2K0MkYr-PI-8" value="rust" style="edgeLabel;html=1;align=center;verticalAlign=middle;resizable=0;points=[];fontStyle=1" vertex="1" connectable="0" parent="tv0lrHKJMZ2K0MkYr-PI-7">
          <mxGeometry x="0.0145" y="-1" relative="1" as="geometry">
            <mxPoint y="-2" as="offset" />
          </mxGeometry>
        </mxCell>
        <mxCell id="tv0lrHKJMZ2K0MkYr-PI-2" value="&lt;font style=&quot;font-size: 16px;&quot;&gt;return bindings.transformSync(src:str,&lt;br&gt;isModule, toBuffer(options))&lt;br&gt;// 将option转换为buffer便于rust读取&lt;br&gt;&lt;/font&gt;" style="rounded=1;whiteSpace=wrap;html=1;" vertex="1" parent="1">
          <mxGeometry x="519" y="503" width="311" height="75" as="geometry" />
        </mxCell>
        <mxCell id="tv0lrHKJMZ2K0MkYr-PI-6" value="&lt;font style=&quot;font-size: 16px;&quot;&gt;crate::util::init_default_trace_subscriber()&lt;br&gt;// todo 应该是初始化记录和收集信息的工具&lt;br&gt;&lt;/font&gt;" style="rounded=1;whiteSpace=wrap;html=1;strokeColor=#CC0000;" vertex="1" parent="1">
          <mxGeometry x="1110" y="498.5" width="340" height="84" as="geometry" />
        </mxCell>
        <mxCell id="tv0lrHKJMZ2K0MkYr-PI-9" value="&lt;font style=&quot;font-size: 16px;&quot;&gt;compiler: Arc&amp;lt;Compiler&amp;gt; = get_compiler()&lt;br&gt;// 多线程共享Compiler所有权&lt;br&gt;// todo:&amp;nbsp;&lt;br&gt;&lt;/font&gt;" style="rounded=1;whiteSpace=wrap;html=1;strokeColor=#CC0000;" vertex="1" parent="1">
          <mxGeometry x="1110" y="654" width="340" height="84" as="geometry" />
        </mxCell>
        <mxCell id="tv0lrHKJMZ2K0MkYr-PI-10" value="&lt;font style=&quot;font-size: 16px;&quot;&gt;compiler: Arc&amp;lt;Compiler&amp;gt; = get_compiler()&lt;br&gt;// 多线程共享Compiler所有权&lt;br&gt;&lt;/font&gt;" style="rounded=1;whiteSpace=wrap;html=1;strokeColor=#CC0000;" vertex="1" parent="1">
          <mxGeometry x="1575" y="654" width="340" height="84" as="geometry" />
        </mxCell>
        <mxCell id="tv0lrHKJMZ2K0MkYr-PI-11" value="&lt;font style=&quot;font-size: 16px;&quot;&gt;options: Options = get_deserialized(&amp;amp;opts)&lt;br&gt;// 从序列化数据里解析出options&lt;br&gt;// todo:&amp;nbsp;&lt;br&gt;&lt;/font&gt;" style="rounded=1;whiteSpace=wrap;html=1;strokeColor=#CC0000;" vertex="1" parent="1">
          <mxGeometry x="1110" y="809" width="340" height="84" as="geometry" />
        </mxCell>
      </root>
    </mxGraphModel>
  </diagram>
</mxfile>
